<?xml version="1.0" encoding="UTF-8"?>
<svg version="1.1" xmlns="http://www.w3.org/2000/svg" width="500" height="500">
<path d="M0 0 C8.83784565 0.04422199 17.67569489 0.07222378 26.51361287 0.09721828 C35.18875745 0.12249018 43.86380785 0.1590709 52.53887117 0.20430398 C57.65521751 0.23078876 62.7714821 0.25294879 67.88788867 0.2633214 C72.65115411 0.27332941 77.41414696 0.29755223 82.17729449 0.33225489 C83.90530292 0.34252612 85.63334902 0.34796466 87.36138797 0.34782267 C106.32816557 0.35263364 127.1845219 1.72383333 141.44317508 15.79627275 C152.30549036 28.25251473 156.76268207 42.30456553 156.71060061 58.57230425 C156.71513173 59.62296709 156.71966284 60.67362994 156.72433126 61.75613105 C156.73693931 65.25865204 156.73535719 68.76101681 156.73370242 72.26355791 C156.73968997 74.78238928 156.74649604 77.30121881 156.75405765 79.82004595 C156.76987211 85.94199535 156.77616513 92.06388803 156.7772824 98.18585594 C156.77823523 103.16692546 156.78235724 108.14798235 156.78868365 113.12904787 C156.80628485 127.27697833 156.81552448 141.42487854 156.8140227 155.57282002 C156.81394279 156.3344354 156.81386288 157.09605078 156.81378055 157.88074541 C156.81369878 158.64329985 156.81361702 159.40585429 156.81353278 160.19151644 C156.81272059 172.53839535 156.83184435 184.88515207 156.86005728 197.23199566 C156.88885262 209.93483108 156.90259387 222.63760705 156.90086973 235.34047592 C156.90020803 242.4619902 156.90560279 249.58337644 156.92722583 256.70486116 C156.94744814 263.40757755 156.94669631 270.10997998 156.93219256 276.81272554 C156.93010983 279.26397392 156.93477312 281.71523941 156.94691348 284.16645861 C157.03364618 302.90133536 156.21539672 320.73958871 143.44317508 335.79627275 C142.78317508 335.79627275 142.12317508 335.79627275 141.44317508 335.79627275 C141.44317508 336.45627275 141.44317508 337.11627275 141.44317508 337.79627275 C140.78317508 337.79627275 140.12317508 337.79627275 139.44317508 337.79627275 C139.44317508 338.45627275 139.44317508 339.11627275 139.44317508 339.79627275 C121.2949555 356.0600271 95.18403486 355.24838124 72.39141726 355.16858721 C69.93022389 355.17102085 67.46903152 355.17474569 65.00784183 355.17964983 C59.06503566 355.1880175 53.12234124 355.18261802 47.17955086 355.17038689 C40.23767158 355.15664112 33.29582029 355.15841562 26.35393086 355.16052022 C13.95852374 355.16369683 1.56317443 355.15211738 -10.83221555 355.1324544 C-22.82246781 355.11343948 -34.81265241 355.10637284 -46.80291867 355.11194658 C-59.90926618 355.11802126 -73.0155841 355.11779774 -86.12192917 355.10646075 C-87.52249694 355.10525364 -88.92306471 355.10404766 -90.32363248 355.10284281 C-91.35689299 355.1019375 -91.35689299 355.1019375 -92.41102745 355.1010139 C-97.2347689 355.09715592 -102.05849924 355.09752003 -106.88224149 355.09942865 C-113.38639633 355.10178746 -119.89048372 355.0931315 -126.39462018 355.07736826 C-128.77169176 355.07315056 -131.1487721 355.07225777 -133.52584577 355.07505846 C-155.17367078 355.09668283 -175.22380488 354.76353084 -193.55682492 341.79627275 C-194.54682492 341.13627275 -195.53682492 340.47627275 -196.55682492 339.79627275 C-196.55682492 339.13627275 -196.55682492 338.47627275 -196.55682492 337.79627275 C-197.21682492 337.79627275 -197.87682492 337.79627275 -198.55682492 337.79627275 C-198.55682492 337.13627275 -198.55682492 336.47627275 -198.55682492 335.79627275 C-199.21682492 335.79627275 -199.87682492 335.79627275 -200.55682492 335.79627275 C-209.73014041 323.91163249 -213.87818828 310.86171039 -213.81079221 296.02419329 C-213.81391219 294.96198437 -213.81703217 293.89977545 -213.8202467 292.80537838 C-213.82820243 289.2580967 -213.82191239 285.71098724 -213.81561399 282.1637044 C-213.81832493 279.61558224 -213.82188645 277.06746088 -213.8262341 274.51934099 C-213.83440242 268.32372727 -213.83321315 262.12817696 -213.82740882 255.93256242 C-213.82288562 250.89516415 -213.82228227 245.85777945 -213.82445645 240.82037973 C-213.82476292 240.10246824 -213.82506939 239.38455674 -213.82538514 238.64489035 C-213.82602461 237.1862942 -213.82667304 235.72769805 -213.82733032 234.26910191 C-213.83302903 220.60198373 -213.82648314 206.9348924 -213.81572959 193.26777863 C-213.8067964 181.55175866 -213.80834509 169.83577833 -213.81756711 158.11975908 C-213.82828115 144.50192438 -213.83247775 130.8841132 -213.82634258 117.26627487 C-213.82570551 115.81284376 -213.82507677 114.35941265 -213.82445645 112.90598154 C-213.8241479 112.19093918 -213.82383935 111.47589682 -213.82352145 110.73918651 C-213.82179777 105.71087228 -213.8247026 100.68257303 -213.82941556 95.65426111 C-213.83562539 88.88023425 -213.83117517 82.1062936 -213.81962705 75.33227015 C-213.8169853 72.84786907 -213.81773726 70.36346169 -213.82215238 67.87906313 C-213.82762835 64.48440278 -213.82074853 61.08998107 -213.81079221 57.69533587 C-213.81525365 56.71536184 -213.81971509 55.73538781 -213.82431173 54.7257176 C-213.74479999 40.72034496 -209.03162318 28.96380247 -200.55682492 17.79627275 C-199.89682492 17.79627275 -199.23682492 17.79627275 -198.55682492 17.79627275 C-198.55682492 17.13627275 -198.55682492 16.47627275 -198.55682492 15.79627275 C-197.89682492 15.79627275 -197.23682492 15.79627275 -196.55682492 15.79627275 C-196.55682492 15.13627275 -196.55682492 14.47627275 -196.55682492 13.79627275 C-177.95982055 -0.39078021 -155.9147351 0.28016431 -133.56292892 0.11138678 C-131.29294512 0.0928429 -129.0230727 0.06905397 -126.75315595 0.04364061 C-84.50399497 -0.42688383 -42.2501057 -0.21738804 0 0 Z " fill="#6D7AFC" transform="translate(278.55682492256165,73.20372724533081)"/>
<path d="M0 0 C0.78809052 -0.0033284 1.57618103 -0.0066568 2.38815308 -0.01008606 C4.05401021 -0.01513648 5.71987741 -0.01749497 7.38574219 -0.01733398 C9.90056655 -0.0195061 12.41494146 -0.03764186 14.9296875 -0.05664062 C23.43503385 -0.08683269 31.49289983 0.13888216 39.8046875 2.16796875 C40.98417969 2.42835938 42.16367187 2.68875 43.37890625 2.95703125 C56.49184319 6.47794531 70.15763728 12.30216455 79.8046875 22.16796875 C80.1346875 23.15796875 80.4646875 24.14796875 80.8046875 25.16796875 C81.4646875 25.16796875 82.1246875 25.16796875 82.8046875 25.16796875 C90.3586245 33.28305536 93.50163237 42.53284157 95.8046875 53.16796875 C96.09279297 54.27591797 96.09279297 54.27591797 96.38671875 55.40625 C97.02361318 59.61451505 96.8046875 63.91178158 96.8046875 68.16796875 C82.2846875 68.16796875 67.7646875 68.16796875 52.8046875 68.16796875 C50.8246875 61.73296875 50.8246875 61.73296875 48.8046875 55.16796875 C41.8932311 45.41787848 33.10842879 40.7016536 21.45898438 38.54956055 C17.13164232 37.92744542 12.85970491 37.7848454 8.4921875 37.79296875 C7.58009521 37.79458008 6.66800293 37.79619141 5.72827148 37.79785156 C-4.27327331 37.9783625 -13.11444016 40.00098723 -21.1953125 46.16796875 C-22.1853125 46.49796875 -23.1753125 46.82796875 -24.1953125 47.16796875 C-25.27962344 48.91664358 -25.27962344 48.91664358 -26.1953125 51.16796875 C-26.95714844 52.50794922 -26.95714844 52.50794922 -27.734375 53.875 C-29.3754376 57.57397264 -29.5968124 60.1399838 -29.5703125 64.16796875 C-29.57804687 65.34359375 -29.58578125 66.51921875 -29.59375 67.73046875 C-28.99585079 72.88881488 -27.08672108 76.89280167 -23.1328125 80.29296875 C-15.61758855 86.17212783 -6.20117709 88.09797821 2.9296875 90.16796875 C5.16545289 90.69102895 7.40113027 91.21446545 9.63671875 91.73828125 C10.70615723 91.98610352 11.7755957 92.23392578 12.87744141 92.48925781 C19.21066573 93.95767847 25.52050667 95.50086607 31.8046875 97.16796875 C32.84560547 97.44366699 33.88652344 97.71936523 34.95898438 98.00341797 C72.27662452 107.99588436 72.27662452 107.99588436 84.8046875 119.16796875 C84.8046875 119.82796875 84.8046875 120.48796875 84.8046875 121.16796875 C86.1246875 121.82796875 87.4446875 122.48796875 88.8046875 123.16796875 C88.8046875 123.82796875 88.8046875 124.48796875 88.8046875 125.16796875 C89.4646875 125.16796875 90.1246875 125.16796875 90.8046875 125.16796875 C102.28016109 139.03689826 103.84450105 154.86328213 102.8046875 172.16796875 C101.13103206 186.60117556 93.15340286 200.26276976 82.8046875 210.16796875 C82.2271875 210.77640625 81.6496875 211.38484375 81.0546875 212.01171875 C67.52413622 225.30065305 47.87431101 230.14352217 29.8046875 233.16796875 C28.88429688 233.35359375 27.96390625 233.53921875 27.015625 233.73046875 C-1.98458969 237.6818362 -33.69855911 230.89586407 -57.1953125 213.16796875 C-57.1953125 212.50796875 -57.1953125 211.84796875 -57.1953125 211.16796875 C-58.0615625 210.79671875 -58.0615625 210.79671875 -58.9453125 210.41796875 C-61.52471229 208.98496887 -63.25652842 207.38372199 -65.1953125 205.16796875 C-65.1953125 204.50796875 -65.1953125 203.84796875 -65.1953125 203.16796875 C-65.8553125 203.16796875 -66.5153125 203.16796875 -67.1953125 203.16796875 C-71.91472849 195.38821888 -76.16315462 188.13633495 -78.1953125 179.16796875 C-78.5253125 177.84796875 -78.8553125 176.52796875 -79.1953125 175.16796875 C-79.1953125 170.54796875 -79.1953125 165.92796875 -79.1953125 161.16796875 C-65.0053125 161.16796875 -50.8153125 161.16796875 -36.1953125 161.16796875 C-35.2053125 165.45796875 -34.2153125 169.74796875 -33.1953125 174.16796875 C-26.27998502 185.40537591 -15.79972511 191.0208193 -3.1953125 194.16796875 C11.77573418 197.23940271 27.96434799 197.61692224 41.8046875 190.16796875 C48.52768177 185.71425015 54.18622641 181.0015315 56.8046875 173.16796875 C57.72989314 165.93007684 58.25238112 159.04711084 53.6796875 152.98046875 C44.93796692 143.66294622 33.23332127 140.79771606 21.17578125 137.92578125 C18.73371683 137.32815414 16.29165977 136.73049692 13.84960938 136.1328125 C10.05487209 135.21351302 6.25944646 134.29712821 2.46362305 133.38232422 C-53.97048325 119.73988372 -53.97048325 119.73988372 -67.1953125 99.54296875 C-75.96185748 84.49966126 -77.65840703 67.26612194 -74.61328125 50.13671875 C-69.89849202 32.74151464 -57.09437834 19.97896826 -41.94287109 11.14160156 C-32.93606716 6.12356104 -23.15703021 3.53925278 -13.1953125 1.16796875 C-12.47029541 0.98999756 -11.74527832 0.81202637 -10.99829102 0.62866211 C-7.32964913 0.02568961 -3.70698849 0.00550753 0 0 Z " fill="#FBFCFD" transform="translate(240.1953125,133.83203125)"/>
<path d="M0 0 C0.66 0 1.32 0 2 0 C2.09138468 32.61232799 2.16210784 65.22461886 2.20426132 97.83704579 C2.20926374 101.69320326 2.21444106 105.54936048 2.21972656 109.40551758 C2.2207758 110.17316153 2.22182505 110.94080549 2.22290608 111.73171138 C2.24027898 124.13734831 2.27179935 136.54291058 2.30861118 148.94850332 C2.34610758 161.69172094 2.36825417 174.43489963 2.37635398 187.17817014 C2.38182379 195.03216438 2.39905647 202.88594753 2.43166587 210.73987674 C2.45544557 216.77723089 2.45779803 222.81440608 2.45243073 228.85181236 C2.45352594 231.31757526 2.46141238 233.78334659 2.4768219 236.24906158 C2.58840618 255.03452364 1.81022114 272.8985198 -11 288 C-11.66 288 -12.32 288 -13 288 C-13 288.66 -13 289.32 -13 290 C-13.66 290 -14.32 290 -15 290 C-15 290.66 -15 291.32 -15 292 C-33.14821958 308.26375434 -59.25914022 307.45210848 -82.05175781 307.37231445 C-84.51295118 307.3747481 -86.97414356 307.37847294 -89.43533325 307.38337708 C-95.37813942 307.39174474 -101.32083384 307.38634526 -107.26362422 307.37411413 C-114.2055035 307.36036837 -121.14735478 307.36214286 -128.08924422 307.36424746 C-140.48465134 307.36742408 -152.88000065 307.35584463 -165.27539062 307.33618164 C-177.26564289 307.31716672 -189.25582749 307.31010008 -201.24609375 307.31567383 C-214.35244126 307.3217485 -227.45875917 307.32152498 -240.56510425 307.310188 C-241.96567202 307.30898089 -243.36623979 307.3077749 -244.76680756 307.30657005 C-245.80006807 307.30566475 -245.80006807 307.30566475 -246.85420252 307.30474115 C-251.67794398 307.30088316 -256.50167432 307.30124727 -261.32541656 307.3031559 C-267.82957141 307.30551471 -274.33365879 307.29685875 -280.83779526 307.2810955 C-283.21486684 307.2768778 -285.59194717 307.27598502 -287.96902084 307.27878571 C-320.53302835 307.31131443 -320.53302835 307.31131443 -327 303 C-233.94 303 -140.88 303 -45 303 C-45 302.34 -45 301.68 -45 301 C-42.69 301.33 -40.38 301.66 -38 302 C-37.67 301.01 -37.34 300.02 -37 299 C-35.02129274 298.31768715 -33.13480594 298.01739431 -31.0625 297.75 C-27.98187948 296.62977436 -26.26152235 294.3195101 -24 292 C-23.01 291.67 -22.02 291.34 -21 291 C-20.9175 290.21625 -20.835 289.4325 -20.75 288.625 C-20 286 -20 286 -17.9375 284.6875 C-17.298125 284.460625 -16.65875 284.23375 -16 284 C-16.33 283.01 -16.66 282.02 -17 281 C-16.34 280.34 -15.68 279.68 -15 279 C-14.01 279.33 -13.02 279.66 -12 280 C-11.01 279.67 -10.02 279.34 -9 279 C-8.26676204 276.98491642 -8.26676204 276.98491642 -8 275 C-7.34 275 -6.68 275 -6 275 C-6.350625 274.236875 -6.70125 273.47375 -7.0625 272.6875 C-8 270 -8 270 -7 267 C-6.01 266.67 -5.02 266.34 -4 266 C-0.91299412 259.0117898 -0.56330111 251.51735402 -0.60127258 243.99641418 C-0.59462576 242.94570966 -0.58797893 241.89500513 -0.58113068 240.81246108 C-0.56260841 237.32254563 -0.56509874 233.83297629 -0.56762695 230.34301758 C-0.55860324 227.82910685 -0.54827453 225.31520052 -0.53674316 222.80130005 C-0.51490919 217.4048496 -0.50208584 212.00849964 -0.49761391 206.61200905 C-0.4911326 198.80979294 -0.46816061 191.00769251 -0.44127061 183.20552322 C-0.39807772 170.5445025 -0.36806825 157.88348668 -0.34643555 145.22241211 C-0.32540332 132.92941892 -0.29810871 120.6364657 -0.26245117 108.34350586 C-0.26025235 107.58471195 -0.25805352 106.82591803 -0.25578807 106.04413036 C-0.24471785 102.23716887 -0.23352515 98.43020775 -0.22227156 94.62324679 C-0.12919271 63.08219785 -0.05776671 31.54113433 0 0 Z " fill="#8770D1" transform="translate(433,121)"/>
<path d="M0 0 C1.4203174 0.01045035 2.84064181 0.019981 4.26097107 0.02867126 C8.08263287 0.05461951 11.90406856 0.09328913 15.72559333 0.13439512 C19.73202664 0.17527606 23.73854649 0.20424666 27.74507141 0.23452759 C35.31672701 0.29353922 42.88824624 0.36312748 50.45977384 0.43659842 C59.08615888 0.51978407 67.71262982 0.59105307 76.3391279 0.66136432 C94.07036923 0.80614956 111.80144921 0.96575939 129.5324707 1.13525391 C129.5324707 1.46525391 129.5324707 1.79525391 129.5324707 2.13525391 C128.8034061 2.13948585 128.07434149 2.14371778 127.32318401 2.14807796 C109.59688723 2.25130873 91.87063107 2.35993509 74.14440441 2.47459316 C65.57219498 2.52990995 56.99998139 2.58338943 48.42773438 2.63256836 C40.95760235 2.67542909 33.48750079 2.72171189 26.01741582 2.77213246 C22.06078094 2.79871815 18.10415203 2.82357087 14.14748192 2.84432793 C10.42521765 2.86390928 6.70301126 2.88805758 2.98079872 2.91574478 C0.95963111 2.92957962 -1.06156801 2.93853967 -3.08276367 2.94737244 C-4.88116447 2.96205566 -4.88116447 2.96205566 -6.71589661 2.97703552 C-7.76028806 2.98348807 -8.80467951 2.98994062 -9.88071918 2.99658871 C-12.58422217 3.02693296 -12.58422217 3.02693296 -15.4675293 4.13525391 C-15.4675293 3.47525391 -15.4675293 2.81525391 -15.4675293 2.13525391 C-16.4575293 2.79525391 -17.4475293 3.45525391 -18.4675293 4.13525391 C-21.56611615 5.09299893 -24.56211853 6.0129011 -27.7800293 6.44775391 C-29.77444936 7.04158874 -29.77444936 7.04158874 -30.7175293 9.69775391 C-30.9650293 10.50212891 -31.2125293 11.30650391 -31.4675293 12.13525391 C-32.1275293 11.80525391 -32.7875293 11.47525391 -33.4675293 11.13525391 C-34.1275293 11.79525391 -34.7875293 12.45525391 -35.4675293 13.13525391 C-36.1275293 12.47525391 -36.7875293 11.81525391 -37.4675293 11.13525391 C-40.4216012 15.4010296 -40.4216012 15.4010296 -42.4675293 20.13525391 C-45.0300293 21.32275391 -45.0300293 21.32275391 -47.4675293 22.13525391 C-47.4675293 23.78525391 -47.4675293 25.43525391 -47.4675293 27.13525391 C-48.1275293 27.46525391 -48.7875293 27.79525391 -49.4675293 28.13525391 C-49.7975293 27.47525391 -50.1275293 26.81525391 -50.4675293 26.13525391 C-52.69755517 28.14737358 -52.69755517 28.14737358 -54.4675293 31.13525391 C-54.45192021 33.13783315 -54.45192021 33.13783315 -54.0300293 35.19775391 C-53.4675293 39.13525391 -53.4675293 39.13525391 -54.9050293 41.51025391 C-55.4206543 42.04650391 -55.9362793 42.58275391 -56.4675293 43.13525391 C-56.4675293 43.79525391 -56.4675293 44.45525391 -56.4675293 45.13525391 C-57.4575293 45.63025391 -57.4575293 45.63025391 -58.4675293 46.13525391 C-58.4675293 134.24525391 -58.4675293 222.35525391 -58.4675293 313.13525391 C-58.7975293 313.13525391 -59.1275293 313.13525391 -59.4675293 313.13525391 C-61.35586009 306.7519367 -61.75163682 300.99866823 -61.72149658 294.36317444 C-61.72461656 293.30096552 -61.72773654 292.2387566 -61.73095107 291.14435953 C-61.73890681 287.59707786 -61.73261677 284.0499684 -61.72631836 280.50268555 C-61.72902931 277.9545634 -61.73259082 275.40644203 -61.73693848 272.85832214 C-61.74510679 266.66270842 -61.74391753 260.46715811 -61.73811319 254.27154357 C-61.73359 249.2341453 -61.73298665 244.1967606 -61.73516083 239.15936089 C-61.73546729 238.44144939 -61.73577376 237.72353789 -61.73608951 236.9838715 C-61.73672899 235.52527535 -61.73737741 234.0666792 -61.7380347 232.60808306 C-61.74373341 218.94096488 -61.73718752 205.27387356 -61.72643396 191.60675978 C-61.71750078 179.89073981 -61.71904946 168.17475949 -61.72827148 156.45874023 C-61.73898552 142.84090553 -61.74318212 129.22309435 -61.73704696 115.60525602 C-61.73640989 114.15182492 -61.73578114 112.69839381 -61.73516083 111.24496269 C-61.73485228 110.52992033 -61.73454373 109.81487797 -61.73422582 109.07816767 C-61.73250214 104.04985343 -61.73540697 99.02155418 -61.74011993 93.99324226 C-61.74632977 87.2192154 -61.74187954 80.44527475 -61.73033142 73.6712513 C-61.72768967 71.18685022 -61.72844164 68.70244284 -61.73285675 66.21804428 C-61.73833272 62.82338393 -61.73145291 59.42896222 -61.72149658 56.03431702 C-61.72595803 55.05434299 -61.73041947 54.07436896 -61.73501611 53.06469876 C-61.65550437 39.05932611 -56.94232755 27.30278363 -48.4675293 16.13525391 C-47.8075293 16.13525391 -47.1475293 16.13525391 -46.4675293 16.13525391 C-46.4675293 15.47525391 -46.4675293 14.81525391 -46.4675293 14.13525391 C-45.8075293 14.13525391 -45.1475293 14.13525391 -44.4675293 14.13525391 C-44.4675293 13.47525391 -44.4675293 12.81525391 -44.4675293 12.13525391 C-30.74088816 1.66364348 -16.89658222 -0.21384865 0 0 Z " fill="#779BE1" transform="translate(126.467529296875,74.86474609375)"/>
<path d="M0 0 C1.4203174 0.01045035 2.84064181 0.019981 4.26097107 0.02867126 C8.08263287 0.05461951 11.90406856 0.09328913 15.72559333 0.13439512 C19.73202664 0.17527606 23.73854649 0.20424666 27.74507141 0.23452759 C35.31672701 0.29353922 42.88824624 0.36312748 50.45977384 0.43659842 C59.08615888 0.51978407 67.71262982 0.59105307 76.3391279 0.66136432 C94.07036923 0.80614956 111.80144921 0.96575939 129.5324707 1.13525391 C129.5324707 1.46525391 129.5324707 1.79525391 129.5324707 2.13525391 C128.8034061 2.13948585 128.07434149 2.14371778 127.32318401 2.14807796 C109.59688723 2.25130873 91.87063107 2.35993509 74.14440441 2.47459316 C65.57219498 2.52990995 56.99998139 2.58338943 48.42773438 2.63256836 C40.95760235 2.67542909 33.48750079 2.72171189 26.01741582 2.77213246 C22.06078094 2.79871815 18.10415203 2.82357087 14.14748192 2.84432793 C10.42521765 2.86390928 6.70301126 2.88805758 2.98079872 2.91574478 C0.95963111 2.92957962 -1.06156801 2.93853967 -3.08276367 2.94737244 C-4.88116447 2.96205566 -4.88116447 2.96205566 -6.71589661 2.97703552 C-7.76028806 2.98348807 -8.80467951 2.98994062 -9.88071918 2.99658871 C-12.58422217 3.02693296 -12.58422217 3.02693296 -15.4675293 4.13525391 C-15.4675293 3.47525391 -15.4675293 2.81525391 -15.4675293 2.13525391 C-16.4575293 2.79525391 -17.4475293 3.45525391 -18.4675293 4.13525391 C-21.56611615 5.09299893 -24.56211853 6.0129011 -27.7800293 6.44775391 C-29.77444936 7.04158874 -29.77444936 7.04158874 -30.7175293 9.69775391 C-30.9650293 10.50212891 -31.2125293 11.30650391 -31.4675293 12.13525391 C-32.1275293 11.80525391 -32.7875293 11.47525391 -33.4675293 11.13525391 C-34.1275293 11.79525391 -34.7875293 12.45525391 -35.4675293 13.13525391 C-36.1275293 12.47525391 -36.7875293 11.81525391 -37.4675293 11.13525391 C-40.4216012 15.4010296 -40.4216012 15.4010296 -42.4675293 20.13525391 C-45.0300293 21.32275391 -45.0300293 21.32275391 -47.4675293 22.13525391 C-47.4675293 23.78525391 -47.4675293 25.43525391 -47.4675293 27.13525391 C-48.1275293 27.46525391 -48.7875293 27.79525391 -49.4675293 28.13525391 C-49.7975293 27.47525391 -50.1275293 26.81525391 -50.4675293 26.13525391 C-52.69755517 28.14737358 -52.69755517 28.14737358 -54.4675293 31.13525391 C-54.45192021 33.13783315 -54.45192021 33.13783315 -54.0300293 35.19775391 C-53.4675293 39.13525391 -53.4675293 39.13525391 -54.9050293 41.51025391 C-55.4206543 42.04650391 -55.9362793 42.58275391 -56.4675293 43.13525391 C-56.4675293 43.79525391 -56.4675293 44.45525391 -56.4675293 45.13525391 C-57.9525293 45.63025391 -57.9525293 45.63025391 -59.4675293 46.13525391 C-61.08395068 42.09420045 -59.80112806 39.13605019 -58.4675293 35.13525391 C-58.0756543 33.89775391 -57.6837793 32.66025391 -57.2800293 31.38525391 C-55.18654853 25.9033558 -52.0191041 20.7908122 -48.4675293 16.13525391 C-47.8075293 16.13525391 -47.1475293 16.13525391 -46.4675293 16.13525391 C-46.4675293 15.47525391 -46.4675293 14.81525391 -46.4675293 14.13525391 C-45.8075293 14.13525391 -45.1475293 14.13525391 -44.4675293 14.13525391 C-44.4675293 13.47525391 -44.4675293 12.81525391 -44.4675293 12.13525391 C-30.74088816 1.66364348 -16.89658222 -0.21384865 0 0 Z " fill="#6CB0F0" transform="translate(126.467529296875,74.86474609375)"/>
<path d="M0 0 C1.22976562 0.14566406 2.45953125 0.29132813 3.7265625 0.44140625 C10.66273991 1.21314754 17.62490362 1.67517574 24.5859375 2.16210938 C34.12755408 2.88123857 43.32477167 3.75877726 52 8 C49.18740275 9.40629862 47.84840211 8.52778783 44.875 7.625 C37.55656707 5.40666481 30.31934657 4.84023489 22.72265625 4.76171875 C21.95304062 4.753647 21.18342499 4.74557526 20.39048767 4.73725891 C18.76775292 4.72351465 17.14499044 4.71274995 15.5222168 4.70483398 C13.8984297 4.69339092 12.27467788 4.67306284 10.65112305 4.64331055 C-13.55344742 4.20170234 -36.51346962 10.75530632 -55 27 C-66.56703579 38.35370931 -72.12702459 51.42214811 -72.31689453 67.49194336 C-72.30836516 78.79483067 -72.30836516 78.79483067 -71 90 C-71.99 89.67 -72.98 89.34 -74 89 C-74.24054693 87.10998842 -74.47885537 85.21966996 -74.70703125 83.328125 C-74.89220113 81.85664168 -75.0956003 80.38723661 -75.32421875 78.921875 C-76.28332856 72.19565036 -75.68110678 65.73444331 -75 59 C-74.938125 58.19691406 -74.87625 57.39382812 -74.8125 56.56640625 C-74.41938375 52.23393754 -73.37006727 49.59899105 -71 46 C-69.59998184 43.02873843 -68.29537839 40.0181659 -67 37 C-67.99 37 -68.98 37 -70 37 C-70 35 -70 35 -68 33 C-68 32.01 -68 31.02 -68 30 C-67.34 30 -66.68 30 -66 30 C-65.67 30.99 -65.34 31.98 -65 33 C-64.01216806 31.92456217 -63.03506057 30.83926783 -62.0625 29.75 C-61.51722656 29.14671875 -60.97195312 28.5434375 -60.41015625 27.921875 C-58.93787201 25.91532695 -58.42470811 24.42997551 -58 22 C-57.29875 22.12375 -56.5975 22.2475 -55.875 22.375 C-52.03820131 21.874548 -50.81291073 20.14030986 -48.33203125 17.3125 C-47 16 -47 16 -45 16 C-44.67 15.34 -44.34 14.68 -44 14 C-42.00491933 13.31875294 -40.00361307 12.65572791 -38 12 C-35.88570184 10.94481224 -33.80614587 9.84329318 -31.734375 8.70703125 C-30.87585938 8.35705078 -30.87585938 8.35705078 -30 8 C-29.34 8.33 -28.68 8.66 -28 9 C-28 8.34 -28 7.68 -28 7 C-18.68735293 4.87705614 -9.47276226 3.22368509 0 2 C0 1.34 0 0.68 0 0 Z " fill="#6E99EE" transform="translate(238,130)"/>
<path d="M0 0 C87.615 0.495 87.615 0.495 177 1 C177 1.33 177 1.66 177 2 C176.19270761 2.00423194 175.38541523 2.00846388 174.55365944 2.01282406 C154.93335606 2.1160151 135.31308966 2.22463537 115.69285011 2.33933926 C106.20475127 2.39467692 96.71664868 2.4481598 87.22851562 2.49731445 C78.96110387 2.54014965 70.69371986 2.58642594 62.42635095 2.63687855 C58.04664948 2.66348486 53.66695353 2.68833806 49.28722 2.70907402 C45.16852734 2.72862836 41.04988752 2.7527685 36.93124199 2.78049088 C35.41628794 2.7898677 33.90132229 2.7975407 32.38635063 2.80341911 C30.32445413 2.81166962 28.26268626 2.82594318 26.20083618 2.84178162 C25.04490778 2.84823417 23.88897938 2.85468672 22.69802284 2.8613348 C20.03054158 2.81776441 20.03054158 2.81776441 18 4 C15.49248327 3.79951488 13.05023737 3.53152389 10.5625 3.1875 C9.88123047 3.10435547 9.19996094 3.02121094 8.49804688 2.93554688 C4.99294397 2.46522455 2.99177534 1.99451689 0 0 Z " fill="#7A64EC" transform="translate(106,424)"/>
<path d="M0 0 C0.66 0 1.32 0 2 0 C2.61395823 5.03445749 1.43660158 7.76366795 -1.5546875 11.65234375 C-3 13 -3 13 -5.8125 13.4375 C-6.534375 13.293125 -7.25625 13.14875 -8 13 C-8 13.99 -8 14.98 -8 16 C-9.65 16 -11.3 16 -13 16 C-12.75 13.625 -12.75 13.625 -12 11 C-9.9375 9.6875 -9.9375 9.6875 -8 9 C-8.33 8.01 -8.66 7.02 -9 6 C-8.34 5.34 -7.68 4.68 -7 4 C-6.01 4.33 -5.02 4.66 -4 5 C-3.01 4.67 -2.02 4.34 -1 4 C-0.26676204 1.98491642 -0.26676204 1.98491642 0 0 Z " fill="#8754ED" transform="translate(425,396)"/>
<path d="M0 0 C0.66 1.32 1.32 2.64 2 4 C1.01 4.495 1.01 4.495 0 5 C0.12375 6.1446875 0.12375 6.1446875 0.25 7.3125 C0 10 0 10 -1.8125 11.8125 C-4 13 -4 13 -7 13 C-7.33 13.99 -7.66 14.98 -8 16 C-8.99 16.33 -9.98 16.66 -11 17 C-11 18.32 -11 19.64 -11 21 C-14.63 21.66 -18.26 22.32 -22 23 C-19.53922221 20.4366898 -16.95860718 18.10521867 -14.25 15.8125 C-8.86412909 11.14272803 -3.958923 5.93838451 0 0 Z " fill="#6E61EE" transform="translate(334,330)"/>
<path d="M0 0 C23.76 0.33 47.52 0.66 72 1 C72 1.33 72 1.66 72 2 C71.02947189 2.0154612 71.02947189 2.0154612 70.03933716 2.03123474 C63.32380778 2.1391575 56.60841646 2.2537668 49.89306641 2.37231445 C47.38463216 2.41570903 44.87616751 2.4573807 42.36767578 2.49731445 C38.76846132 2.55490757 35.16940058 2.61863343 31.5703125 2.68359375 C29.87964157 2.70866249 29.87964157 2.70866249 28.15481567 2.73423767 C26.59342361 2.7641555 26.59342361 2.7641555 25.00048828 2.79467773 C23.62148849 2.81799416 23.62148849 2.81799416 22.21463013 2.84178162 C19.95924846 2.8610678 19.95924846 2.8610678 18 4 C15.49248327 3.79951488 13.05023737 3.53152389 10.5625 3.1875 C9.88123047 3.10435547 9.19996094 3.02121094 8.49804688 2.93554688 C4.99294397 2.46522455 2.99177534 1.99451689 0 0 Z " fill="#776EEF" transform="translate(106,424)"/>
<path d="M0 0 C2.40031771 3.60047656 2.30415507 6.21676891 2.25 10.375 C2.24685791 11.08164795 2.24371582 11.7882959 2.24047852 12.51635742 C2.15217151 18.25889139 1.42323811 23.78221718 0.33984375 29.42578125 C-0.20583162 32.11196123 -0.20583162 32.11196123 1 35 C-0.98 35.495 -0.98 35.495 -3 36 C-3.33 37.32 -3.66 38.64 -4 40 C-4.66 40 -5.32 40 -6 40 C-5.56432506 37.45856287 -5.0808127 35.18856297 -4.0625 32.8125 C-0.11753409 22.36994317 -0.39448962 11.01684432 0 0 Z " fill="#7366E9" transform="translate(343,286)"/>
<path d="M0 0 C0.66 0.66 1.32 1.32 2 2 C-3.87133019 9.65994733 -11.34230373 15.90050081 -21 18 C-23.69142642 18.13751814 -26.30119193 18.09306235 -29 18 C-26.15333071 16.10222047 -24.85888655 15.64195066 -21.625 15.0625 C-17.86738354 14.28422345 -15.18350726 13.21076893 -12 11 C-7.22222222 8 -7.22222222 8 -5 8 C-5 6.68 -5 5.36 -5 4 C-3.35 3.67 -1.7 3.34 0 3 C0 2.01 0 1.02 0 0 Z " fill="#7872E8" transform="translate(293,311)"/>
<path d="M0 0 C0.92748047 -0.00257813 1.85496094 -0.00515625 2.81054688 -0.0078125 C4.26750977 0.00378906 4.26750977 0.00378906 5.75390625 0.015625 C7.20506836 0.00402344 7.20506836 0.00402344 8.68554688 -0.0078125 C10.07870117 -0.00394531 10.07870117 -0.00394531 11.5 0 C12.35134521 0.00225586 13.20269043 0.00451172 14.07983398 0.00683594 C16.31640625 0.265625 16.31640625 0.265625 19.31640625 2.265625 C10.49391918 3.11394106 2.12512818 3.31428237 -6.68359375 2.265625 C-4.19926478 -0.21870397 -3.42330837 0.00908297 0 0 Z " fill="#627CE5" transform="translate(242.68359375,170.734375)"/>
<path d="M0 0 C0 4.29525524 -2.23382207 5.83865379 -5 9 C-5.99 10.485 -5.99 10.485 -7 12 C-7.66 12 -8.32 12 -9 12 C-9.4021875 13.0828125 -9.4021875 13.0828125 -9.8125 14.1875 C-10.98982498 16.97590126 -12.39145884 19.44095724 -14 22 C-14.66 21.67 -15.32 21.34 -16 21 C-12.0322381 12.74546016 -6.43985759 6.43985759 0 0 Z " fill="#DFF2FE" transform="translate(186,153)"/>
<path d="M0 0 C0.85432111 3.10015009 1.18380965 4.94182506 0 8 C-0.49628906 8.41765625 -0.99257812 8.8353125 -1.50390625 9.265625 C-3.58245208 11.6752186 -3.50286815 13.5487585 -3.6875 16.6875 C-3.75324219 17.68136719 -3.81898438 18.67523438 -3.88671875 19.69921875 C-3.92410156 20.45847656 -3.96148437 21.21773437 -4 22 C-4.33 22 -4.66 22 -5 22 C-5.54619824 13.35793011 -5.88765952 6.77080845 0 0 Z " fill="#6C89EC" transform="translate(215,183)"/>
<path d="M0 0 C1.32 0 2.64 0 4 0 C4.1953125 2.05078125 4.390625 4.1015625 4.5859375 6.15234375 C4.72257812 6.76207031 4.85921875 7.37179687 5 8 C5.66 8.33 6.32 8.66 7 9 C7 11.97 7 14.94 7 18 C4.77533317 15.77533317 4.36067112 14.06816487 3.57421875 11.0859375 C2.54311374 7.34029073 1.25068399 3.67701093 0 0 Z " fill="#756EE8" transform="translate(336,267)"/>
<path d="M0 0 C1.485 0.99 1.485 0.99 3 2 C3 2.66 3 3.32 3 4 C3.598125 4.2475 4.19625 4.495 4.8125 4.75 C7.28647521 6.16370012 8.43370255 7.65055383 10 10 C8.02 10.33 6.04 10.66 4 11 C4 9.35 4 7.7 4 6 C2.35 5.67 0.7 5.34 -1 5 C-0.67 3.35 -0.34 1.7 0 0 Z " fill="#7188EB" transform="translate(174,235)"/>
<path d="M0 0 C1.32 0 2.64 0 4 0 C4 0.99 4 1.98 4 3 C4.804375 3.268125 5.60875 3.53625 6.4375 3.8125 C12.71875 5.90625 12.71875 5.90625 19 8 C19 8.66 19 9.32 19 10 C11.40095711 9.01947834 4.96599083 5.7669571 0 0 Z " fill="#768AEA" transform="translate(215,212)"/>
<path d="M0 0 C-0.99 0.66 -1.98 1.32 -3 2 C-2.67 2.66 -2.34 3.32 -2 4 C-2.7425 3.979375 -3.485 3.95875 -4.25 3.9375 C-6.70462279 3.99328688 -8.66109261 4.3069904 -11 5 C-11.33 4.01 -11.66 3.02 -12 2 C-10.56656 1.46809459 -9.12804633 0.94984742 -7.6875 0.4375 C-6.48673828 0.00244141 -6.48673828 0.00244141 -5.26171875 -0.44140625 C-3 -1 -3 -1 0 0 Z " fill="#675BEE" transform="translate(296,362)"/>
<path d="M0 0 C6.27 0.33 12.54 0.66 19 1 C19 1.99 19 2.98 19 4 C16.39442509 3.71815415 13.79099602 3.42497289 11.1875 3.125 C10.44951172 3.04636719 9.71152344 2.96773438 8.95117188 2.88671875 C5.28493819 2.45539714 3.12048255 2.0803217 0 0 Z " fill="#7F7DD4" transform="translate(106,424)"/>
<path d="M0 0 C0 0.99 0 1.98 0 3 C-0.66 3 -1.32 3 -2 3 C-2 3.66 -2 4.32 -2 5 C-2.66 5 -3.32 5 -4 5 C-4 5.66 -4 6.32 -4 7 C-4.66 7 -5.32 7 -6 7 C-6 6.34 -6 5.68 -6 5 C-6.99 5.33 -7.98 5.66 -9 6 C-8 3 -8 3 -5.0625 1.3125 C-2 0 -2 0 0 0 Z " fill="#6D5FEF" transform="translate(312,353)"/>
<path d="M0 0 C3.59648384 2.62446118 6.11692258 4.91999893 8 9 C7.67 9.99 7.34 10.98 7 12 C7 11.34 7 10.68 7 10 C6.01 10.33 5.02 10.66 4 11 C4 9.02 4 7.04 4 5 C2.35 5.33 0.7 5.66 -1 6 C-0.34 5.67 0.32 5.34 1 5 C0.67 3.35 0.34 1.7 0 0 Z " fill="#6E6DE9" transform="translate(289,282)"/>
<path d="M0 0 C1.98 0 3.96 0 6 0 C7.34726118 4.04178355 6.32004573 6.03986281 5 10 C3.35 6.7 1.7 3.4 0 0 Z " fill="#717CEE" transform="translate(327,165)"/>
<path d="M0 0 C2.475 0.495 2.475 0.495 5 1 C5.33 2.32 5.66 3.64 6 5 C6.66 5 7.32 5 8 5 C8.33 6.32 8.66 7.64 9 9 C8.34 9 7.68 9 7 9 C7 8.34 7 7.68 7 7 C6.34 7 5.68 7 5 7 C5 6.34 5 5.68 5 5 C4.34 5 3.68 5 3 5 C1.375 2.5 1.375 2.5 0 0 Z " fill="#8588E0" transform="translate(75,404)"/>
<path d="M0 0 C4.99275057 1.27721526 7.57611908 3.17330957 11 7 C6.545 6.01 6.545 6.01 2 5 C2 4.34 2 3.68 2 3 C1.34 2.67 0.68 2.34 0 2 C0 1.34 0 0.68 0 0 Z " fill="#687AE8" transform="translate(272,175)"/>
<path d="M0 0 C1.64767247 0.28109113 3.29313145 0.57518526 4.9375 0.875 C5.85402344 1.03742188 6.77054688 1.19984375 7.71484375 1.3671875 C8.46894531 1.57601563 9.22304687 1.78484375 10 2 C10.33 2.66 10.66 3.32 11 4 C7.66666667 4 4.33333333 4 1 4 C0.67 2.68 0.34 1.36 0 0 Z " fill="#6476EE" transform="translate(206,257)"/>
<path d="M0 0 C5.53846154 0.61538462 5.53846154 0.61538462 7.875 2.5625 C8.431875 3.2740625 8.431875 3.2740625 9 4 C7.35 3.67 5.7 3.34 4 3 C3.67 3.66 3.34 4.32 3 5 C1.68 4.34 0.36 3.68 -1 3 C-0.67 2.01 -0.34 1.02 0 0 Z " fill="#637CF3" transform="translate(191,251)"/>
<path d="M0 0 C4.85963179 0.60745397 8.7405518 2.72758967 13 5 C11.15625 5.5859375 11.15625 5.5859375 9 6 C6.5 4.625 6.5 4.625 4 3 C1.80869466 2.30420546 1.80869466 2.30420546 0 2 C0 1.34 0 0.68 0 0 Z " fill="#8F8EE5" transform="translate(399,78)"/>
<path d="M0 0 C1.27875 -0.061875 2.5575 -0.12375 3.875 -0.1875 C4.95394531 -0.23970703 4.95394531 -0.23970703 6.0546875 -0.29296875 C6.69664063 -0.19628906 7.33859375 -0.09960938 8 0 C8.66 0.99 9.32 1.98 10 3 C8.375 3.6875 8.375 3.6875 6 4 C2.75 2.5625 2.75 2.5625 0 1 C0 0.67 0 0.34 0 0 Z " fill="#8688E2" transform="translate(95,420)"/>
<path d="M0 0 C1.43791516 0.14168137 2.8753237 0.28851043 4.3125 0.4375 C5.11300781 0.51871094 5.91351563 0.59992188 6.73828125 0.68359375 C9 1 9 1 12 2 C12 2.66 12 3.32 12 4 C7.75519536 4.33292585 5.64457375 4.43885872 2.0625 2 C1.381875 1.34 0.70125 0.68 0 0 Z " fill="#6761E9" transform="translate(214,363)"/>
<path d="M0 0 C1.58971965 2.38457948 2.86741593 4.6304124 4.125 7.1875 C4.47820312 7.90292969 4.83140625 8.61835938 5.1953125 9.35546875 C5.46085938 9.89816406 5.72640625 10.44085938 6 11 C5.01 11.495 5.01 11.495 4 12 C4 11.34 4 10.68 4 10 C3.01 10 2.02 10 1 10 C0.67 6.7 0.34 3.4 0 0 Z " fill="#7490EA" transform="translate(168,223)"/>
<path d="M0 0 C0.66 0 1.32 0 2 0 C3.25 6.625 3.25 6.625 1 10 C1 9.01 1 8.02 1 7 C0.01 7 -0.98 7 -2 7 C-2 5 -2 5 0 3 C0 2.01 0 1.02 0 0 Z " fill="#5F9AF9" transform="translate(170,160)"/>
<path d="M0 0 C-0.74324341 2.39489543 -1.47057354 3.70777616 -3.69140625 4.93359375 C-5.44073501 5.67219923 -7.21934149 6.34049685 -9 7 C-9 6.01 -9 5.02 -9 4 C-2.25 0 -2.25 0 0 0 Z " fill="#E3F5FE" transform="translate(202,144)"/>
<path d="M0 0 C-1.485 1.485 -1.485 1.485 -3 3 C-2.34 3.33 -1.68 3.66 -1 4 C-3.49092811 5.24546405 -4.41080733 4.7767578 -7 4 C-6.67 2.68 -6.34 1.36 -6 0 C-2.25 -1.125 -2.25 -1.125 0 0 Z " fill="#5D81F4" transform="translate(225,179)"/>
<path d="M0 0 C2.5 2.3125 2.5 2.3125 5 5 C5 5.99 5 6.98 5 8 C4.01 8 3.02 8 2 8 C1.87625 7.360625 1.7525 6.72125 1.625 6.0625 C1.315625 5.0415625 1.315625 5.0415625 1 4 C0.34 3.67 -0.32 3.34 -1 3 C-0.67 2.01 -0.34 1.02 0 0 Z " fill="#9490EF" transform="translate(421,92)"/>
<path d="M0 0 C0.66 0.33 1.32 0.66 2 1 C1.3125 3.875 1.3125 3.875 0 7 C-2.625 8.375 -2.625 8.375 -5 9 C-3.7508258 5.54074837 -2.32472205 2.85306797 0 0 Z " fill="#85C2EE" transform="translate(78,91)"/>
<path d="M0 0 C1.2065625 0.0309375 1.2065625 0.0309375 2.4375 0.0625 C2.1075 1.7125 1.7775 3.3625 1.4375 5.0625 C0.7775 4.7325 0.1175 4.4025 -0.5625 4.0625 C-1.2225 4.7225 -1.8825 5.3825 -2.5625 6.0625 C-2.94468767 4.40635343 -3.27645102 2.73792976 -3.5625 1.0625 C-2.5625 0.0625 -2.5625 0.0625 0 0 Z " fill="#5CB3F7" transform="translate(93.5625,81.9375)"/>
<path d="M0 0 C2 1 2 1 2.703125 2.77734375 C2.88359375 3.49019531 3.0640625 4.20304687 3.25 4.9375 C3.44078125 5.64777344 3.6315625 6.35804688 3.828125 7.08984375 C3.88484375 7.72019531 3.9415625 8.35054688 4 9 C3.34 9.66 2.68 10.32 2 11 C1.46770674 9.73392393 0.94955456 8.46189588 0.4375 7.1875 C0.14746094 6.47980469 -0.14257812 5.77210938 -0.44140625 5.04296875 C-1 3 -1 3 0 0 Z " fill="#8087E4" transform="translate(69,387)"/>
<path d="M0 0 C-1.40691607 0.72750788 -2.82606022 1.43140353 -4.25 2.125 C-5.03890625 2.51945313 -5.8278125 2.91390625 -6.640625 3.3203125 C-9 4 -9 4 -11.296875 3.1171875 C-11.85890625 2.74851563 -12.4209375 2.37984375 -13 2 C-11.5882217 1.46605821 -10.17029756 0.94834896 -8.75 0.4375 C-7.96109375 0.14746094 -7.1721875 -0.14257812 -6.359375 -0.44140625 C-3.80896548 -1.04522837 -2.44677771 -0.8473932 0 0 Z " fill="#E1EFFE" transform="translate(222,138)"/>
<path d="M0 0 C2.31 0.33 4.62 0.66 7 1 C5.35 2.32 3.7 3.64 2 5 C0 2 0 2 0 0 Z M-3 2 C-2.01 2.33 -1.02 2.66 0 3 C-0.99 3.33 -1.98 3.66 -3 4 C-3 3.34 -3 2.68 -3 2 Z " fill="#7C79F9" transform="translate(407,83)"/>
<path d="M0 0 C2.97 0 5.94 0 9 0 C9.33 1.32 9.66 2.64 10 4 C6.7 3.01 3.4 2.02 0 1 C0 0.67 0 0.34 0 0 Z " fill="#7982ED" transform="translate(280,233)"/>
<path d="M0 0 C0.66 0.99 1.32 1.98 2 3 C0.625 4.5 0.625 4.5 -1 6 C-1.66 6 -2.32 6 -3 6 C-2.625 3.5625 -2.625 3.5625 -2 1 C-1.34 0.67 -0.68 0.34 0 0 Z " fill="#57B1FB" transform="translate(71,111)"/>
<path d="M0 0 C1.32 0.33 2.64 0.66 4 1 C3.67 1.66 3.34 2.32 3 3 C1.68 3 0.36 3 -1 3 C-1.33 3.99 -1.66 4.98 -2 6 C-2.66 5.67 -3.32 5.34 -4 5 C-2.68 3.35 -1.36 1.7 0 0 Z " fill="#8751F3" transform="translate(408,413)"/>
<path d="M0 0 C0.75 1.75 0.75 1.75 1 4 C-0.9375 6.25 -0.9375 6.25 -3 8 C-3 6.02 -3 4.04 -3 2 C-2.01 2 -1.02 2 0 2 C0 1.34 0 0.68 0 0 Z " fill="#8B6AD5" transform="translate(424,401)"/>
<path d="M0 0 C1.9375 0.375 1.9375 0.375 4 1 C4.33 1.66 4.66 2.32 5 3 C3.02 3.33 1.04 3.66 -1 4 C-0.67 2.68 -0.34 1.36 0 0 Z " fill="#6684EF" transform="translate(179,242)"/>
<path d="M0 0 C1.98 0.66 3.96 1.32 6 2 C6 2.99 6 3.98 6 5 C4.35 4.67 2.7 4.34 1 4 C0.67 2.68 0.34 1.36 0 0 Z " fill="#7171F5" transform="translate(401,80)"/>
<path d="" fill="#FFFFFF" transform="translate(0,0)"/>
<path d="" fill="#FFFFFF" transform="translate(0,0)"/>
<path d="" fill="#FFFFFF" transform="translate(0,0)"/>
<path d="" fill="#FFFFFF" transform="translate(0,0)"/>
<path d="" fill="#FFFFFF" transform="translate(0,0)"/>
<path d="" fill="#FFFFFF" transform="translate(0,0)"/>
<path d="" fill="#FFFFFF" transform="translate(0,0)"/>
<path d="" fill="#FFFFFF" transform="translate(0,0)"/>
<path d="" fill="#FFFFFF" transform="translate(0,0)"/>
<path d="" fill="#FFFFFF" transform="translate(0,0)"/>
<path d="" fill="#FFFFFF" transform="translate(0,0)"/>
<path d="" fill="#FFFFFF" transform="translate(0,0)"/>
<path d="" fill="#FFFFFF" transform="translate(0,0)"/>
<path d="" fill="#FFFFFF" transform="translate(0,0)"/>
<path d="" fill="#FFFFFF" transform="translate(0,0)"/>
<path d="" fill="#FFFFFF" transform="translate(0,0)"/>
<path d="" fill="#FFFFFF" transform="translate(0,0)"/>
<path d="" fill="#FFFFFF" transform="translate(0,0)"/>
<path d="" fill="#FFFFFF" transform="translate(0,0)"/>
<path d="" fill="#FFFFFF" transform="translate(0,0)"/>
<path d="" fill="#FFFFFF" transform="translate(0,0)"/>
<path d="" fill="#FFFFFF" transform="translate(0,0)"/>
<path d="" fill="#FFFFFF" transform="translate(0,0)"/>
<path d="" fill="#FFFFFF" transform="translate(0,0)"/>
<path d="" fill="#FFFFFF" transform="translate(0,0)"/>
<path d="" fill="#FFFFFF" transform="translate(0,0)"/>
<path d="" fill="#FFFFFF" transform="translate(0,0)"/>
<path d="" fill="#FFFFFF" transform="translate(0,0)"/>
<path d="" fill="#FFFFFF" transform="translate(0,0)"/>
<path d="" fill="#FFFFFF" transform="translate(0,0)"/>
<path d="" fill="#FFFFFF" transform="translate(0,0)"/>
<path d="" fill="#FFFFFF" transform="translate(0,0)"/>
<path d="" fill="#FFFFFF" transform="translate(0,0)"/>
<path d="" fill="#FFFFFF" transform="translate(0,0)"/>
<path d="" fill="#FFFFFF" transform="translate(0,0)"/>
<path d="" fill="#FFFFFF" transform="translate(0,0)"/>
<path d="" fill="#FFFFFF" transform="translate(0,0)"/>
<path d="" fill="#FFFFFF" transform="translate(0,0)"/>
</svg>
